# xmcd
#
# Track frame offsets:
# 150
# 30986
# 56275
# 76977
# 113255
# 143041
# 180569
# 208739
# 224494
# 259403
#
# Disc length: 3792 seconds
#
# Revision: 0
# Processed by: cddbd v1.5.2PL0 Copyright (c) Steve Scherf et al.
# Submitted via: Audion 3.0.2 (http://www.panic.com/audion/)
#
DISCID=830ece0a
DTITLE=lorna burn - angels
DYEAR=1900
DGENRE=
TTITLE0=angels in my hair
TTITLE1=when i see a angel
TTITLE2=there are millions of angels out there
TTITLE3=one day i was sitting at the window
TTITLE4=the move
TTITLE5=one day da brought home a beautiful car 
TTITLE6=i have been givern
TTITLE7=i had learning difficulties
TTITLE8=some months after we moved into the new nouse
TTITLE9=one day when i was
EXTD=
EXTT0=
EXTT1=
EXTT2=
EXTT3=
EXTT4=
EXTT5=
EXTT6=
EXTT7=
EXTT8=
EXTT9=
PLAYORDER=
